<svg id="Layer_2" data-name="Layer 2" xmlns="http://www.w3.org/2000/svg" width="1681.81" height="265" viewBox="0 0 1681.81 265"><defs><style>.cls-1,.cls-2{fill:red;stroke:red;stroke-miterlimit:10;}.cls-1{stroke-width:2px;}.cls-2{stroke-width:4px;}</style></defs><path class="cls-1" d="M263,11l-.5,248.14,49,.36V101s107,27.52,107,96.52v62h56.36l.11-51.94a85.2,85.2,0,0,0-34.85-69.28c-9.54-6.92-21.68-13-37.12-17.28-64.07-17.64-95.38-30.11-101.12-50.22a24.75,24.75,0,0,1-.88-6.86V18l66.46.83c14.61.18,31,4.05,41.54,14.17,7.55,7.25,11.49,18.8,11,32-1,27-14,44-26,53l5,2s53.35-16,61-44c6-22,4-46-22-58-7.65-3.53-25-7-33-7Z"/><path class="cls-1" d="M1138.06,11a60.69,60.69,0,0,0-14.77,1.79C1054.53,30.12,1052,105,1052,105l-.33,154.5h49.48C1097.29,175,1109,170,1121,149s91-48,91-48l.06,156.84H1262V11ZM1193,98c-32,10-42.5,6.5-62.5,16.5-9.21,4.6-27.5,17.5-27.5,17.5s-20.89-76.28,40.32-108.56a38.66,38.66,0,0,1,18-4.44h61.52V69.12S1225,88,1193,98Z"/><rect class="cls-1" x="727" y="15" width="55" height="248"/><path class="cls-1" d="M797.69,14V262l48.86.5V22S876,20,891,39s18,48,10,76-18,49-14,72c3.26,18.76,22.19,50.83,47.91,66.9a54.31,54.31,0,0,0,28.81,8.1H1040V14H993l1,236H978s-26,1-43-24c-19.67-28.93-9-58-4-72,7.87-22.05,18-41,18-60,0-22.15-8.07-52.6-40.56-71.18A67.85,67.85,0,0,0,874.71,14Z"/><path class="cls-1" d="M125,1C56.52,1,1,59.65,1,132S56.52,263,125,263s124-58.65,124-131S193.48,1,125,1Zm-3,256C85,257,8.32,181.29,55,131.5,101,82.44,85,6,122,6s67,56.19,67,125.5S159,257,122,257Z"/><path class="cls-1" d="M1279.12,11l-.5,251.87,49,.36V102.33s107,27.94,107,98v62.93H1491l.11-52.71c.06-27.74-12.73-54.05-34.85-70.33-9.54-7-21.68-13.22-37.12-17.54-64.07-17.9-95.38-30.56-101.12-51a25.51,25.51,0,0,1-.88-7V18.11l66.46.84c14.61.18,31,4.11,41.54,14.38,7.55,7.36,11.49,19.09,11,32.48-1,27.41-14,44.66-26,53.8l5,2s53.35-16.2,61-44.66c6-22.33,4-46.69-22-58.87-7.65-3.59-25-7.11-33-7.11Z"/><path class="cls-1" d="M703.58,82c-22-42.36-66.3-68.4-114-68.4L491,14l-.23,248.08H582.3c56.88,0,108.29-35.25,127.42-88.82C722.46,137.57,716.43,106.76,703.58,82ZM647.8,180.65a115.37,115.37,0,0,1-11.62,28.44C620.27,236.82,593,251,565.57,253H535V23h32.69c23.86,0,46.52,13.37,60.48,36.54,6.37,10.58,11.27,22.25,15.54,33.65C650.13,110.34,654.16,156,647.8,180.65Z"/><path class="cls-2" d="M1535,15h-45s-3.83,41.22,1,70c5,29.82,25,41,38,52,12.08,10.22,18,25.22,19,28s14,39.7-13,98h58l86-248h-51l-55,153S1504,120.49,1535,15Z"/></svg>